<?xml version="1.0" encoding="UTF-8"?>
<!DOCTYPE svg PUBLIC "-//W3C//DTD SVG 1.1//EN" "http://www.w3.org/Graphics/SVG/1.1/DTD/svg11.dtd">
<svg xmlns="http://www.w3.org/2000/svg" version="1.1" width="512px" height="512px" style="shape-rendering:geometricPrecision; text-rendering:geometricPrecision; image-rendering:optimizeQuality; fill-rule:evenodd; clip-rule:evenodd" xmlns:xlink="http://www.w3.org/1999/xlink">
<g><path style="opacity:0.992" fill="#000000" d="M 277.5,-0.5 C 280.5,-0.5 283.5,-0.5 286.5,-0.5C 287.97,1.15949 288.637,3.15949 288.5,5.5C 285.521,28.3948 293.188,46.8948 311.5,61C 353.5,94 395.5,127 437.5,160C 448.679,169.972 450.512,181.472 443,194.5C 434.833,204 426.667,213.5 418.5,223C 408.95,230.025 398.283,232.359 386.5,230C 376.111,226.306 366.444,221.306 357.5,215C 348.924,210.894 339.924,209.561 330.5,211C 308.572,216.809 289.072,212.309 272,197.5C 271.833,197.833 271.667,198.167 271.5,198.5C 287.667,219.5 303.833,240.5 320,261.5C 328.565,270.735 337.732,279.235 347.5,287C 356.031,295.197 364.198,303.697 372,312.5C 374.261,316.95 375.928,321.617 377,326.5C 377.5,345.497 377.667,364.497 377.5,383.5C 283.167,383.5 188.833,383.5 94.5,383.5C 94.6251,342.163 95.1251,300.829 96,259.5C 96.785,210.244 105.785,162.577 123,116.5C 131.954,96.4087 144.454,78.9087 160.5,64C 173.578,54.6062 188.078,50.7729 204,52.5C 218.78,52.1098 230.78,46.1098 240,34.5C 245.37,21.9034 253.87,12.0701 265.5,5C 269.71,3.39139 273.71,1.55805 277.5,-0.5 Z"/></g>
<g><path style="opacity:0.996" fill="#000000" d="M 405.5,511.5 C 294.833,511.5 184.167,511.5 73.5,511.5C 64.6531,506.792 61.4864,499.458 64,489.5C 75.3333,466.833 86.6667,444.167 98,421.5C 99.9384,418.894 102.438,417.061 105.5,416C 194.833,415.333 284.167,415.333 373.5,416C 376.562,417.061 379.062,418.894 381,421.5C 392.333,444.167 403.667,466.833 415,489.5C 417.514,499.458 414.347,506.792 405.5,511.5 Z"/></g>
</svg>
